<?xml version="1.0" encoding="iso-8859-1"?>
<!-- Generator: Adobe Illustrator 24.3.0, SVG Export Plug-In . SVG Version: 6.00 Build 0)  -->
<svg version="1.1" xmlns="http://www.w3.org/2000/svg" xmlns:xlink="http://www.w3.org/1999/xlink" x="0px" y="0px"
	 viewBox="0 0 512 512" style="enable-background:new 0 0 512 512;" xml:space="preserve">
<g id="_x36_12_x2C__cake_x2C__cup_cake_x2C__Muffins_x2C__baked__x2C__sweets">
	<g>
		<g>
			<path style="fill:#F78F4B;" d="M161.426,339.609c5.13,1.6,10.59,2.471,16.26,2.471c18.91,0,35.57-9.66,45.3-24.32
				c9.74,14.66,26.4,24.32,45.311,24.32c18.92,0,35.569-9.66,45.31-24.32c9.74,14.66,26.391,24.32,45.3,24.32
				c5.67,0,11.13-0.871,16.261-2.471l-25.32,120.27h-27.18h-27.19h-27.18h-27.181h-27.189h-27.181L161.426,339.609z"/>
			<g>
				<path style="fill:#E2773B;" d="M173.625,350.535c5.13,1.6,10.59,2.469,16.26,2.469c18.307,0,34.484-9.068,44.328-22.945
					c-4.339-3.498-8.135-7.643-11.227-12.299c-9.73,14.66-26.39,24.32-45.3,24.32c-5.67,0-11.13-0.871-16.26-2.471l25.319,120.27
					h9.899L173.625,350.535z"/>
				<path style="fill:#E2773B;" d="M371.104,353.004c0.418,0,0.831-0.014,1.247-0.023l2.814-13.371
					c-5.131,1.6-10.591,2.471-16.261,2.471c-10.972,0-21.172-3.27-29.714-8.863C339.163,345.295,354.227,353.004,371.104,353.004z"
					/>
				<path style="fill:#E2773B;" d="M280.495,353.004c18.316,0,34.484-9.068,44.336-22.945c-4.338-3.498-8.133-7.643-11.226-12.299
					c-9.74,14.66-26.39,24.32-45.31,24.32c-10.976,0-21.182-3.272-29.728-8.869C248.541,345.293,263.613,353.004,280.495,353.004z"
					/>
			</g>
			<path style="fill:#EF3E5C;" d="M150.495,97.43c10.011,0,18.13,8.11,18.13,18.12c0,10.01-8.119,18.12-18.13,18.12
				c-10,0-18.12-8.11-18.12-18.12C132.375,105.54,140.495,97.43,150.495,97.43z"/>
			<path style="fill:#D63054;" d="M137.375,127.3c0-10.01,8.12-18.12,18.12-18.12c5.151,0,9.79,2.158,13.092,5.606
				c-0.404-9.652-8.339-17.356-18.092-17.356c-10,0-18.12,8.11-18.12,18.12c0,4.86,1.925,9.262,5.039,12.516
				C137.403,127.81,137.375,127.558,137.375,127.3z"/>
			<path style="fill:#EF3E5C;" d="M303.046,150.49c-9.471,8.68-19.851,17.9-30.24,28.49c-11.431-11.65-22.86-21.66-33.07-31.1
				c-20.92-19.35-36.68-36.33-36.68-60.22c0-19.62,15.62-35.54,34.88-35.54c17.43,0,26.149,8.89,34.87,26.66
				c8.72-17.77,17.44-26.66,34.88-26.66c19.29,0,34.91,15.92,34.91,35.54C342.596,112.62,325.376,130.03,303.046,150.49z"/>
			<g>
				<path style="fill:#D63054;" d="M257.386,156.94c-20.92-19.35-36.68-36.33-36.68-60.22c0-19.62,15.62-35.54,34.88-35.54
					c2.139,0,4.143,0.138,6.035,0.405c-6.038-6.292-13.315-9.465-23.686-9.465c-19.26,0-34.88,15.92-34.88,35.54
					c0,23.89,15.76,40.87,36.68,60.22c10.21,9.44,21.64,19.45,33.07,31.1c1.368-1.395,2.736-2.763,4.103-4.112
					C270.137,168.532,263.538,162.628,257.386,156.94z"/>
			</g>
			<path style="fill:#FFECB2;" d="M239.735,147.88c10.21,9.44,21.64,19.45,33.07,31.1c10.39-10.59,20.77-19.81,30.24-28.49
				c27.66,13.05,46.8,41.19,46.8,73.79c0,3.37-0.21,6.68-0.6,9.94c3.14-0.56,6.359-0.87,9.659-0.87
				c30.03,0,54.37,24.34,54.37,54.359c0,24.371-16.02,44.98-38.109,51.9c-5.131,1.6-10.591,2.471-16.261,2.471
				c-18.909,0-35.56-9.66-45.3-24.32c-9.74,14.66-26.39,24.32-45.31,24.32c-18.91,0-35.57-9.66-45.311-24.32
				c-9.73,14.66-26.39,24.32-45.3,24.32c-5.67,0-11.13-0.871-16.26-2.471c-22.08-6.92-38.11-27.529-38.11-51.9
				c0-30.02,24.34-54.359,54.37-54.359c3.3,0,6.52,0.31,9.66,0.87c-0.391-3.26-0.601-6.57-0.601-9.94
				C186.745,189.29,208.785,159.45,239.735,147.88z"/>
			<g>
				<path style="fill:#E5CF93;" d="M132.376,299.049c0-30.02,24.34-54.359,54.37-54.359c3.3,0,6.52,0.31,9.66,0.87
					c-0.391-3.26-0.601-6.57-0.601-9.94c0-34.99,22.04-64.83,52.99-76.4c10.21,9.44,21.64,19.45,33.07,31.1
					c10.39-10.59,20.77-19.81,30.24-28.49c9.127,4.306,17.318,10.264,24.208,17.475c-8.213-12.393-19.713-22.419-33.269-28.814
					c-9.471,8.68-19.851,17.9-30.24,28.49c-11.431-11.65-22.86-21.66-33.07-31.1c-30.95,11.57-52.99,41.41-52.99,76.4
					c0,3.37,0.21,6.68,0.601,9.94c-3.141-0.56-6.36-0.87-9.66-0.87c-30.03,0-54.37,24.34-54.37,54.359
					c0,15.451,6.449,29.385,16.792,39.281C135.204,318.824,132.376,309.272,132.376,299.049z"/>
			</g>
			<path d="M358.905,287.709c5.011,0,9.06,4.06,9.06,9.07c0,5-4.05,9.061-9.06,9.061c-5,0-9.06-4.061-9.06-9.061
				C349.846,291.77,353.905,287.709,358.905,287.709z"/>
			<path d="M286.416,233.35c5.01,0,9.06,4.05,9.06,9.06c0,5-4.05,9.06-9.06,9.06c-5,0-9.06-4.06-9.06-9.06
				C277.355,237.4,281.416,233.35,286.416,233.35z"/>
			<path d="M222.985,206.16c5.01,0,9.07,4.06,9.07,9.06c0,5.01-4.061,9.06-9.07,9.06c-5,0-9.06-4.05-9.06-9.06
				C213.926,210.22,217.985,206.16,222.985,206.16z"/>
			<path d="M213.926,260.529c5.01,0,9.06,4.061,9.06,9.061s-4.05,9.061-9.06,9.061c-5,0-9.061-4.061-9.061-9.061
				S208.926,260.529,213.926,260.529z"/>
			<path d="M168.625,278.65c5,0,9.061,4.059,9.061,9.059c0,5.012-4.061,9.07-9.061,9.07c-5.01,0-9.06-4.059-9.06-9.07
				C159.565,282.709,163.615,278.65,168.625,278.65z"/>
			<path d="M349.851,464.881c-0.341,0-0.688-0.035-1.035-0.109c-2.702-0.568-4.432-3.221-3.862-5.922l25.32-120.27
				c0.568-2.701,3.216-4.43,5.923-3.863c2.702,0.568,4.432,3.221,3.862,5.924l-25.32,120.27
				C354.243,463.264,352.165,464.881,349.851,464.881z"/>
			<path d="M186.74,464.881c-2.314,0-4.392-1.617-4.888-3.971l-25.319-120.27c-0.569-2.703,1.16-5.355,3.862-5.924
				c2.707-0.566,5.355,1.162,5.923,3.863l25.319,120.27c0.569,2.701-1.16,5.353-3.862,5.922
				C187.429,464.846,187.082,464.881,186.74,464.881z"/>
			<path d="M322.666,464.879c-2.762,0-5-2.238-5-5V369.27c0-2.762,2.238-5,5-5c2.762,0,5,2.238,5,5v90.609
				C327.666,462.641,325.428,464.879,322.666,464.879z"/>
			<path d="M295.476,464.879c-2.762,0-5-2.238-5-5V405.51c0-2.762,2.238-5,5-5c2.762,0,5,2.238,5,5v54.369
				C300.476,462.641,298.237,464.879,295.476,464.879z"/>
			<path d="M268.296,464.879c-2.762,0-5-2.238-5-5V369.27c0-2.762,2.238-5,5-5c2.762,0,5,2.238,5,5v90.609
				C273.296,462.641,271.058,464.879,268.296,464.879z"/>
			<path d="M241.115,464.879c-2.761,0-5-2.238-5-5V405.51c0-2.762,2.239-5,5-5c2.762,0,5,2.238,5,5v54.369
				C246.115,462.641,243.877,464.879,241.115,464.879z"/>
			<path d="M213.926,464.879c-2.762,0-5-2.238-5-5V369.27c0-2.762,2.238-5,5-5c2.761,0,5,2.238,5,5v90.609
				C218.926,462.641,216.686,464.879,213.926,464.879z"/>
			<path d="M268.29,283.65c-2.485,0-4.64-1.852-4.956-4.381c-0.342-2.74,1.601-5.238,4.342-5.58
				c35.524-4.442,54.542-15.371,64.239-23.759c10.285-8.895,12.46-16.846,12.48-16.925c0.643-2.686,3.332-4.32,6.021-3.674
				c2.686,0.642,4.335,3.366,3.693,6.051c-0.379,1.582-10.13,38.846-85.193,48.229C268.706,283.637,268.496,283.65,268.29,283.65z"
				/>
			<path d="M358.905,347.08c-17.6,0-34.079-7.744-45.3-21.008c-11.221,13.264-27.705,21.008-45.31,21.008
				s-34.088-7.744-45.309-21.006c-11.213,13.264-27.693,21.006-45.302,21.006c-6.039,0-12.011-0.908-17.748-2.697
				c-24.898-7.803-41.622-30.578-41.622-56.674c0-32.731,26.633-59.359,59.37-59.359c1.377,0,2.768,0.05,4.163,0.15
				c-0.068-1.415-0.104-2.824-0.104-4.22c0-35.924,22.602-68.509,56.239-81.083c2.585-0.967,5.467,0.346,6.435,2.933
				c0.967,2.587-0.346,5.467-2.933,6.435c-29.752,11.122-49.741,39.942-49.741,71.716c0,3.071,0.19,6.215,0.564,9.346
				c0.188,1.573-0.38,3.142-1.531,4.23c-1.151,1.087-2.75,1.565-4.311,1.287c-2.948-0.526-5.903-0.793-8.782-0.793
				c-27.223,0-49.37,22.143-49.37,49.359c0,21.703,13.906,40.643,34.605,47.129c4.767,1.486,9.736,2.242,14.765,2.242
				c16.578,0,31.955-8.256,41.134-22.084c0.927-1.396,2.49-2.236,4.165-2.236c1.675,0,3.239,0.838,4.166,2.234
				c9.189,13.828,24.57,22.086,41.146,22.086c16.574,0,31.956-8.258,41.146-22.086c0.926-1.396,2.489-2.234,4.164-2.234
				s3.238,0.838,4.164,2.234c9.19,13.828,24.567,22.086,41.136,22.086c5.028,0,9.998-0.756,14.772-2.244
				c20.691-6.48,34.598-25.422,34.598-47.127c0-27.217-22.147-49.359-49.37-49.359c-2.879,0-5.834,0.267-8.781,0.793
				c-1.556,0.279-3.157-0.199-4.311-1.287c-1.151-1.087-1.72-2.656-1.532-4.229c0.375-3.132,0.564-6.277,0.564-9.347
				c0-29.487-17.245-56.676-43.934-69.268c-2.497-1.178-3.566-4.158-2.389-6.655c1.18-2.499,4.162-3.566,6.656-2.389
				c30.171,14.235,49.666,44.974,49.666,78.312c0,1.396-0.034,2.805-0.104,4.22c1.396-0.1,2.786-0.15,4.163-0.15
				c32.736,0,59.37,26.629,59.37,59.359c0,26.1-16.724,48.875-41.614,56.672C370.915,346.172,364.943,347.08,358.905,347.08z"/>
			<path d="M272.806,183.98c-1.343,0-2.629-0.54-3.569-1.499c-8.494-8.657-16.913-16.331-25.056-23.751
				c-2.676-2.439-5.296-4.827-7.84-7.179c-20.946-19.375-38.285-37.555-38.285-63.892c0-22.354,17.89-40.54,39.88-40.54
				c17.227,0,27.052,8.18,34.87,21.143c7.818-12.963,17.646-21.143,34.88-21.143c22.007,0,39.91,18.186,39.91,40.54
				c0,26.672-17.844,45.143-41.172,66.517c-1.66,1.522-3.35,3.061-5.061,4.621c-8.119,7.398-16.515,15.048-24.987,23.684
				C275.435,183.44,274.148,183.98,272.806,183.98z M237.936,57.12c-16.475,0-29.88,13.7-29.88,30.54
				c0,22.293,15.885,38.8,35.075,56.55c2.526,2.335,5.128,4.706,7.786,7.129c7.112,6.482,14.433,13.154,21.889,20.551
				c7.435-7.376,14.732-14.025,21.821-20.485c1.705-1.553,3.387-3.086,5.041-4.602c22.208-20.349,37.928-36.501,37.928-59.144
				c0-16.84-13.418-30.54-29.91-30.54c-13.968,0-21.637,6.022-30.392,23.863c-0.84,1.712-2.581,2.797-4.488,2.797
				c-1.907,0-3.648-1.085-4.488-2.797C259.561,63.141,251.895,57.12,237.936,57.12z"/>
			<path d="M150.495,138.67c-12.748,0-23.12-10.372-23.12-23.12s10.372-23.12,23.12-23.12c12.754,0,23.13,10.372,23.13,23.12
				S163.249,138.67,150.495,138.67z M150.495,102.43c-7.234,0-13.12,5.886-13.12,13.12c0,7.234,5.886,13.12,13.12,13.12
				c7.24,0,13.13-5.886,13.13-13.12C163.625,108.315,157.735,102.43,150.495,102.43z"/>
			<path style="fill:#EF3E5C;" d="M104.245,175.869c10.011,0,18.13,8.11,18.13,18.12c0,10.01-8.119,18.12-18.13,18.12
				c-10,0-18.12-8.11-18.12-18.12C86.125,183.98,94.245,175.869,104.245,175.869z"/>
			<path style="fill:#D63054;" d="M91.125,205.739c0-10.01,8.12-18.12,18.12-18.12c5.151,0,9.79,2.158,13.092,5.606
				c-0.404-9.652-8.339-17.356-18.092-17.356c-10,0-18.12,8.11-18.12,18.12c0,4.86,1.925,9.262,5.039,12.516
				C91.153,206.249,91.125,205.998,91.125,205.739z"/>
			<path d="M104.245,217.109c-12.748,0-23.12-10.372-23.12-23.12c0-12.749,10.372-23.12,23.12-23.12
				c12.754,0,23.13,10.372,23.13,23.12C127.375,206.738,116.999,217.109,104.245,217.109z M104.245,180.869
				c-7.234,0-13.12,5.886-13.12,13.12c0,7.234,5.886,13.12,13.12,13.12c7.24,0,13.13-5.886,13.13-13.12
				C117.375,186.755,111.485,180.869,104.245,180.869z"/>
			<path style="fill:#EF3E5C;" d="M407.746,165.86c10.01,0,18.129,8.11,18.129,18.12c0,10.01-8.119,18.12-18.129,18.12
				c-10,0-18.121-8.11-18.121-18.12C389.625,173.97,397.746,165.86,407.746,165.86z"/>
			<path style="fill:#D63054;" d="M394.625,195.73c0-10.01,8.121-18.12,18.121-18.12c5.15,0,9.789,2.158,13.091,5.606
				c-0.403-9.652-8.339-17.356-18.091-17.356c-10,0-18.121,8.11-18.121,18.12c0,4.86,1.926,9.262,5.039,12.516
				C394.653,196.24,394.625,195.988,394.625,195.73z"/>
			<path d="M407.746,207.1c-12.749,0-23.121-10.372-23.121-23.12c0-12.749,10.372-23.12,23.121-23.12
				c12.754,0,23.129,10.372,23.129,23.12C430.875,196.729,420.5,207.1,407.746,207.1z M407.746,170.86
				c-7.234,0-13.121,5.886-13.121,13.12c0,7.234,5.887,13.12,13.121,13.12c7.239,0,13.129-5.886,13.129-13.12
				C420.875,176.746,414.985,170.86,407.746,170.86z"/>
			<path d="M413.275,464.879h-289.96c-2.762,0-5-2.238-5-5c0-2.762,2.238-5,5-5h289.96c2.762,0,5,2.238,5,5
				C418.275,462.641,416.037,464.879,413.275,464.879z"/>
		</g>
	</g>
</g>
<g id="Layer_1">
</g>
</svg>
