<?xml version="1.0" encoding="UTF-8" standalone="no"?> <svg width="64" height="64" viewBox="0 0 64 64" fill="none" xmlns="http://www.w3.org/2000/svg">
<path d="M17.94 15.4901C17.7281 13.7985 16.9062 12.2423 15.6284 11.1137C14.3506 9.98503 12.7049 9.3615 11 9.36011C10.7348 9.36011 10.4804 9.46546 10.2929 9.653C10.1054 9.84054 10 10.0949 10 10.3601C10 10.6253 10.1054 10.8797 10.2929 11.0672C10.4804 11.2548 10.7348 11.3601 11 11.3601C12.1804 11.3626 13.3218 11.7826 14.2222 12.5458C15.1227 13.309 15.7241 14.3661 15.92 15.5301C11.56 16.6101 12.46 23.5301 17 23.3601C21.63 23.4801 22.42 16.4301 17.94 15.4901Z" fill="url(#paint0_linear)"/>
<path d="M32.94 15.4901C32.7281 13.7985 31.9062 12.2423 30.6284 11.1137C29.3506 9.98503 27.7049 9.3615 26 9.36011C25.7348 9.36011 25.4804 9.46546 25.2929 9.653C25.1054 9.84054 25 10.0949 25 10.3601C25 10.6253 25.1054 10.8797 25.2929 11.0672C25.4804 11.2548 25.7348 11.3601 26 11.3601C27.1804 11.3626 28.3218 11.7826 29.2222 12.5458C30.1227 13.309 30.7241 14.3661 30.92 15.5301C26.56 16.6101 27.46 23.5301 32 23.3601C36.63 23.4801 37.42 16.4301 32.94 15.4901Z" fill="url(#paint1_linear)"/>
<path d="M47.94 15.4901C47.7281 13.7985 46.9062 12.2423 45.6284 11.1137C44.3506 9.98503 42.7049 9.3615 41 9.36011C40.7348 9.36011 40.4804 9.46546 40.2929 9.653C40.1054 9.84054 40 10.0949 40 10.3601C40 10.6253 40.1054 10.8797 40.2929 11.0672C40.4804 11.2548 40.7348 11.3601 41 11.3601C42.1804 11.3626 43.3218 11.7826 44.2222 12.5458C45.1226 13.309 45.7241 14.3661 45.92 15.5301C41.56 16.6101 42.46 23.5301 47 23.3601C51.63 23.4801 52.42 16.4301 47.94 15.4901Z" fill="url(#paint2_linear)"/>
<path d="M49.57 22.4202C48.7315 22.1979 47.8674 22.087 47 22.0902H8.54C8.13329 22.0901 7.7431 22.251 7.45458 22.5377C7.16606 22.8243 7.00264 23.2135 7 23.6202V28.4502H47.07C48.0134 28.4501 48.9184 28.8235 49.5873 29.4887C50.2563 30.1539 50.6347 31.0568 50.64 32.0002C50.64 32.9002 50.64 54.3802 50.64 54.6202H57V31.7802C56.9739 29.6172 56.2299 27.5242 54.885 25.83C53.5402 24.1358 51.6706 22.9364 49.57 22.4202V22.4202Z" fill="url(#paint3_linear)"/>
<path d="M47.07 26.4502H8C7.73478 26.4502 7.48043 26.5556 7.29289 26.7431C7.10536 26.9306 7 27.185 7 27.4502V36.3302C7.06 37.4602 8.55 37.6102 9.45 37.6602C12.59 37.8002 12.82 34.6602 15.27 34.5202C16.27 34.5202 16.71 34.9702 17.44 35.7702C17.8611 36.3408 18.4103 36.8047 19.0434 37.1243C19.6765 37.4439 20.3758 37.6104 21.085 37.6104C21.7942 37.6104 22.4935 37.4439 23.1266 37.1243C23.7597 36.8047 24.3089 36.3408 24.73 35.7702C28.73 30.9402 30.28 42.0702 36.36 35.7702C37.1 34.9702 37.56 34.5202 38.53 34.5202C40.99 34.6902 41.22 37.8002 44.35 37.6602C47.47 37.8002 47.73 34.6602 50.17 34.5202C52.9 35.3102 52.66 34.4002 52.64 32.0202C52.6374 30.5438 52.0497 29.1285 51.0057 28.0845C49.9617 27.0405 48.5464 26.4528 47.07 26.4502V26.4502Z" fill="url(#paint4_linear)"/>
<path d="M52.09 33C47.09 30.37 45.94 38.75 42.18 34.44C41.7571 33.8664 41.208 33.3976 40.5752 33.0699C39.9423 32.7421 39.2425 32.5643 38.53 32.55C34.86 32.39 33.75 38.27 30.53 34.44C30.11 33.8695 29.5617 33.4056 28.9294 33.086C28.2971 32.7663 27.5985 32.5997 26.89 32.5997C26.1815 32.5997 25.4829 32.7663 24.8506 33.086C24.2183 33.4056 23.67 33.8695 23.25 34.44C22.51 35.24 22.04 35.69 21.07 35.69C18.63 35.51 18.38 32.41 15.26 32.55C12.13 32.41 11.89 35.55 9.43999 35.69C8.48999 35.59 7.13999 34.82 6.98999 36.36V46.18C7.04999 47.31 8.53999 47.46 9.43999 47.51C12.58 47.65 12.81 44.51 15.26 44.37C17.71 44.55 17.94 47.65 21.07 47.51C24.19 47.65 24.45 44.56 26.88 44.37C27.88 44.37 28.32 44.82 29.06 45.62C35.2 51.92 36.67 40.78 40.7 45.62C41.1224 46.1889 41.672 46.6509 42.3049 46.9693C42.9379 47.2876 43.6365 47.4535 44.345 47.4535C45.0535 47.4535 45.7521 47.2876 46.3851 46.9693C47.018 46.6509 47.5676 46.1889 47.99 45.62C48.73 44.82 49.19 44.37 50.16 44.37C51.13 44.37 51.99 45.2 52.52 44.16C52.5914 44.0207 52.6291 43.8666 52.63 43.71V33.86C52.625 33.6815 52.5722 33.5076 52.4773 33.3564C52.3823 33.2052 52.2486 33.0821 52.09 33Z" fill="url(#paint5_linear)"/>
<path d="M52.0901 42.7902C50.1601 41.6402 47.4301 42.8702 46.5301 44.2302C46.3079 44.6098 45.9903 44.9247 45.6087 45.1435C45.2271 45.3624 44.7949 45.4775 44.3551 45.4775C43.9152 45.4775 43.483 45.3624 43.1015 45.1435C42.7199 44.9247 42.4022 44.6098 42.1801 44.2302C41.759 43.6595 41.2098 43.1957 40.5767 42.8761C39.9436 42.5565 39.2443 42.39 38.5351 42.39C37.8259 42.39 37.1266 42.5565 36.4935 42.8761C35.8604 43.1957 35.3112 43.6595 34.8901 44.2302C30.8901 49.0702 29.3701 37.9302 23.2601 44.2302C20.0501 48.0602 18.9401 42.2302 15.2601 42.3402C12.1301 42.2002 11.8901 45.3402 9.44009 45.4802C8.49009 45.3902 7.13009 44.6102 6.99009 46.1502V52.6402C6.99009 53.4002 6.90009 54.6402 7.99009 54.6402H51.6401C52.7001 54.6402 52.6401 53.4102 52.6401 52.6402V43.6402C52.6323 43.4624 52.5773 43.2899 52.4806 43.1404C52.3839 42.991 52.2491 42.8701 52.0901 42.7902V42.7902Z" fill="url(#paint6_linear)"/>
<path d="M60 54.6401H4C3.73478 54.6401 3.48043 54.5348 3.29289 54.3472C3.10536 54.1597 3 53.9054 3 53.6401C3 53.3749 3.10536 53.1206 3.29289 52.933C3.48043 52.7455 3.73478 52.6401 4 52.6401H60C60.2652 52.6401 60.5196 52.7455 60.7071 52.933C60.8946 53.1206 61 53.3749 61 53.6401C61 53.9054 60.8946 54.1597 60.7071 54.3472C60.5196 54.5348 60.2652 54.6401 60 54.6401Z" fill="url(#paint7_linear)"/>
<defs>
<linearGradient id="paint0_linear" x1="10" y1="16.3601" x2="20.92" y2="16.3601" gradientUnits="userSpaceOnUse">
<stop stop-color="#9F002B"/>
<stop offset="0.69" stop-color="#6A001F"/>
<stop offset="1" stop-color="#51001A"/>
</linearGradient>
<linearGradient id="paint1_linear" x1="297.922" y1="238.45" x2="417.135" y2="238.45" gradientUnits="userSpaceOnUse">
<stop stop-color="#9F002B"/>
<stop offset="0.69" stop-color="#6A001F"/>
<stop offset="1" stop-color="#51001A"/>
</linearGradient>
<linearGradient id="paint2_linear" x1="476.676" y1="238.45" x2="595.888" y2="238.45" gradientUnits="userSpaceOnUse">
<stop stop-color="#9F002B"/>
<stop offset="0.69" stop-color="#6A001F"/>
<stop offset="1" stop-color="#51001A"/>
</linearGradient>
<linearGradient id="paint3_linear" x1="7" y1="38.3702" x2="57" y2="38.3702" gradientUnits="userSpaceOnUse">
<stop stop-color="#703D04"/>
<stop offset="0.38" stop-color="#583003"/>
<stop offset="1" stop-color="#2A1702"/>
</linearGradient>
<linearGradient id="paint4_linear" x1="7" y1="32.1002" x2="52.65" y2="32.1002" gradientUnits="userSpaceOnUse">
<stop stop-color="#FDFBF7"/>
<stop offset="0.35" stop-color="#F5F0DF"/>
<stop offset="1" stop-color="#E3D7A9"/>
</linearGradient>
<linearGradient id="paint5_linear" x1="326.47" y1="637.761" x2="2409.48" y2="637.761" gradientUnits="userSpaceOnUse">
<stop stop-color="#703D04"/>
<stop offset="0.38" stop-color="#583003"/>
<stop offset="1" stop-color="#2A1702"/>
</linearGradient>
<linearGradient id="paint6_linear" x1="6.99009" y1="48.4402" x2="52.6601" y2="48.4402" gradientUnits="userSpaceOnUse">
<stop stop-color="#AC9430"/>
<stop offset="0.36" stop-color="#9F7C21"/>
<stop offset="1" stop-color="#834800"/>
</linearGradient>
<linearGradient id="paint7_linear" x1="3" y1="53.6401" x2="60.97" y2="53.6401" gradientUnits="userSpaceOnUse">
<stop stop-color="#C6C6C6"/>
<stop offset="0.42" stop-color="#AEAEAE"/>
<stop offset="1" stop-color="#878787"/>
</linearGradient>
</defs>
</svg>
