<?xml version="1.0" encoding="UTF-8" standalone="no"?> <svg width="512" height="512" viewBox="0 0 512 512" fill="none" xmlns="http://www.w3.org/2000/svg">
<path d="M168 216C190.091 216 208 198.091 208 176C208 153.909 190.091 136 168 136C145.909 136 128 153.909 128 176C128 198.091 145.909 216 168 216Z" fill="#A61F2C"/>
<path d="M232 192C254.091 192 272 174.091 272 152C272 129.909 254.091 112 232 112C209.909 112 192 129.909 192 152C192 174.091 209.909 192 232 192Z" fill="#C92535"/>
<path d="M376 264H373.155C376.566 261.002 379.298 257.31 381.168 253.171C383.039 249.032 384.004 244.542 384 240V240C384 231.513 380.629 223.374 374.627 217.373C368.626 211.371 360.487 208 352 208H337.954C344.085 202.857 348.214 195.724 349.622 187.847C351.029 179.969 349.625 171.848 345.654 164.9L320 120L308.345 134.569C301.997 142.504 293.945 148.91 284.786 153.312C275.626 157.714 265.594 160 255.432 160H224.97C214.104 160 203.683 164.317 196 172C188.317 179.683 184 190.104 184 200.97V208H176C167.513 208 159.374 211.371 153.373 217.373C147.371 223.374 144 231.513 144 240C143.996 244.542 144.961 249.032 146.832 253.171C148.702 257.31 151.434 261.002 154.845 264H152C143.513 264 135.374 267.371 129.373 273.373C123.371 279.374 120 287.513 120 296V296C120 304.487 123.371 312.626 129.373 318.627C135.374 324.629 143.513 328 152 328H376C384.487 328 392.626 324.629 398.627 318.627C404.629 312.626 408 304.487 408 296C408 287.513 404.629 279.374 398.627 273.373C392.626 267.371 384.487 264 376 264Z" fill="#FFA6B7"/>
<path d="M370.806 480H146.806L101.784 324.505C101.52 323.394 101.578 322.231 101.951 321.153C102.325 320.074 102.999 319.124 103.893 318.414C104.788 317.705 105.866 317.266 107.002 317.148C108.137 317.03 109.283 317.239 110.304 317.749L114.804 320C119.772 317.516 125.25 316.223 130.804 316.223C136.358 316.223 141.836 317.516 146.804 320C151.772 317.516 157.25 316.223 162.804 316.223C168.358 316.223 173.836 317.516 178.804 320C183.772 317.516 189.25 316.223 194.804 316.223C200.358 316.223 205.836 317.516 210.804 320C215.772 317.516 221.25 316.223 226.804 316.223C232.358 316.223 237.836 317.516 242.804 320C247.772 317.516 253.25 316.223 258.804 316.223C264.358 316.223 269.836 317.516 274.804 320C279.772 317.516 285.25 316.223 290.804 316.223C296.358 316.223 301.836 317.516 306.804 320V320C311.772 317.516 317.25 316.223 322.804 316.223C328.358 316.223 333.836 317.516 338.804 320C343.772 317.516 349.25 316.223 354.804 316.223C360.358 316.223 365.836 317.516 370.804 320V320C375.772 317.516 381.25 316.223 386.804 316.223C392.358 316.223 397.836 317.516 402.804 320L407.304 317.749C408.325 317.239 409.471 317.03 410.607 317.148C411.742 317.266 412.821 317.705 413.715 318.414C414.61 319.124 415.283 320.074 415.657 321.153C416.031 322.231 416.089 323.394 415.824 324.505L370.806 480Z" fill="#A1DCFF"/>
<path d="M224.578 452.591L210.739 432.02C208.576 428.806 207.475 424.994 207.59 421.122C207.705 417.249 209.031 413.51 211.381 410.43V410.43C212.989 408.322 215.192 406.744 217.705 405.901C220.218 405.057 222.927 404.986 225.481 405.697V405.697C227.159 406.164 228.729 406.956 230.101 408.029C231.473 409.103 232.62 410.436 233.476 411.952L235.088 414.806L237.942 413.194C241.005 411.464 244.629 411.022 248.018 411.964V411.964C250.572 412.674 252.854 414.133 254.571 416.153C256.287 418.173 257.359 420.66 257.648 423.295C258.071 427.147 257.275 431.034 255.374 434.41C253.473 437.786 250.561 440.482 247.048 442.117L224.578 452.591Z" fill="#E6E5E0"/>
<path d="M182.7 399.623L161.249 387.2C157.896 385.259 155.235 382.316 153.642 378.784C152.048 375.253 151.6 371.311 152.363 367.512V367.512C152.885 364.913 154.174 362.53 156.063 360.67C157.952 358.81 160.356 357.56 162.963 357.079V357.079C166.422 356.441 169.993 357.203 172.891 359.198L175.591 361.057L177.45 358.357C178.438 356.922 179.698 355.696 181.16 354.749C182.621 353.802 184.255 353.152 185.968 352.836C188.574 352.355 191.265 352.666 193.693 353.729C196.121 354.792 198.175 356.558 199.59 358.8C201.658 362.076 202.647 365.918 202.418 369.786C202.19 373.654 200.755 377.353 198.316 380.363L182.7 399.623Z" fill="#E6E5E0"/>
<path d="M282.517 397.092L261.212 384.413C257.883 382.432 255.257 379.458 253.706 375.907C252.154 372.357 251.754 368.41 252.562 364.621V364.621C253.114 362.029 254.431 359.661 256.342 357.824C258.253 355.987 260.67 354.765 263.282 354.315V354.315C266.748 353.718 270.309 354.523 273.182 356.551L275.86 358.442L277.751 355.764C279.78 352.891 282.868 350.941 286.334 350.344V350.344C288.946 349.894 291.634 350.238 294.049 351.33C296.464 352.422 298.497 354.213 299.885 356.471C301.913 359.772 302.856 363.626 302.582 367.49C302.307 371.355 300.829 375.036 298.354 378.017L282.517 397.092Z" fill="#E6E5E0"/>
<path d="M327.623 448L313.189 427.843C310.933 424.693 309.721 420.915 309.724 417.041C309.726 413.167 310.942 409.391 313.201 406.243C314.746 404.09 316.901 402.449 319.388 401.532C321.876 400.616 324.58 400.466 327.154 401.101C330.569 401.944 333.509 404.109 335.328 407.12L337.028 409.926L339.834 408.231C341.324 407.331 342.978 406.732 344.7 406.471C346.422 406.209 348.179 406.29 349.87 406.707V406.707C352.443 407.343 354.767 408.734 356.542 410.703C358.317 412.672 359.461 415.128 359.827 417.753V417.753C360.361 421.59 359.68 425.499 357.879 428.929C356.077 432.359 353.247 435.139 349.785 436.877L327.623 448Z" fill="#E6E5E0"/>
<path d="M98.9211 312.146C96.8214 313.791 95.2404 316.007 94.3676 318.527C93.4948 321.048 93.3673 323.767 94.0001 326.358C94.0301 326.482 94.0621 326.606 94.1001 326.729L139.123 482.229C139.606 483.893 140.616 485.356 142.002 486.397C143.387 487.437 145.073 488 146.806 488H370.806C372.54 488 374.227 487.437 375.613 486.396C376.999 485.354 378.009 483.89 378.491 482.225L423.513 326.725C423.549 326.602 423.582 326.478 423.613 326.354C424.247 323.763 424.119 321.044 423.247 318.523C422.374 316.003 420.793 313.787 418.693 312.142C417.199 310.954 415.479 310.083 413.637 309.58C415.468 304.491 416.249 299.083 415.934 293.684C415.618 288.285 414.211 283.005 411.799 278.165C409.386 273.324 406.018 269.022 401.898 265.518C397.777 262.015 392.99 259.382 387.824 257.78C390.778 251.835 392.205 245.248 391.977 238.613C391.749 231.979 389.873 225.506 386.518 219.777C383.163 214.049 378.434 209.246 372.759 205.802C367.084 202.358 360.64 200.381 354.01 200.05C356.963 193.903 358.377 187.13 358.132 180.315C357.886 173.5 355.988 166.846 352.601 160.927L326.946 116.027C326.299 114.894 325.384 113.937 324.281 113.239C323.179 112.54 321.922 112.122 320.622 112.021C319.321 111.92 318.015 112.138 316.817 112.658C315.62 113.177 314.568 113.981 313.753 115L302.1 129.57C296.135 137.042 288.459 142.969 279.722 146.852C278.905 139.244 276.28 131.942 272.067 125.556C267.853 119.169 262.173 113.882 255.5 110.138C248.828 106.393 241.356 104.299 233.71 104.03C226.063 103.76 218.463 105.324 211.543 108.59C206.479 99.4607 203.02 89.5294 201.317 79.2291L199.893 70.6851C199.858 70.4731 199.808 70.2681 199.757 70.0641C206.134 58.3822 213.633 47.3492 222.148 37.1211C222.828 36.3148 223.341 35.3823 223.659 34.3769C223.977 33.3716 224.093 32.3134 224 31.263C223.908 30.2127 223.608 29.1911 223.12 28.2568C222.631 27.3226 221.962 26.4942 221.152 25.8192C220.342 25.1443 219.407 24.6361 218.4 24.324C217.392 24.0118 216.334 23.9018 215.284 24.0003C214.234 24.0988 213.214 24.4038 212.283 24.8979C211.351 25.3919 210.526 26.0652 209.856 26.8791C185.55 56.0599 169.164 91.0061 162.276 128.354C152.35 129.547 143.043 133.81 135.656 140.548C128.27 147.286 123.171 156.162 121.073 165.937C118.975 175.712 119.981 185.899 123.952 195.075C127.923 204.25 134.66 211.957 143.222 217.119C139.105 222.997 136.649 229.877 136.114 237.033C135.579 244.19 136.983 251.358 140.18 257.783C134.88 259.425 129.978 262.152 125.788 265.79C121.598 269.427 118.209 273.897 115.839 278.914C113.468 283.931 112.166 289.386 112.017 294.934C111.867 300.481 112.872 305.998 114.969 311.136L113.883 310.594C111.504 309.386 108.827 308.89 106.173 309.165C103.52 309.44 101.001 310.475 98.9211 312.146V312.146ZM232 120C240.374 120.011 248.411 123.3 254.389 129.164C260.367 135.028 263.811 142.999 263.984 151.371C261.152 151.783 258.294 151.993 255.432 152H224.971C216.441 151.983 208.057 154.209 200.658 158.453C199.7 153.801 199.79 148.994 200.921 144.381C202.052 139.768 204.196 135.464 207.196 131.783C210.197 128.101 213.98 125.134 218.27 123.096C222.56 121.058 227.25 120 232 120V120ZM188.425 94.4851C190.803 102.622 194.142 110.446 198.371 117.792C194.094 121.997 190.64 126.963 188.185 132.436C185.056 130.982 181.778 129.876 178.408 129.136C180.723 117.314 184.075 105.719 188.425 94.4851V94.4851ZM136 176C136.01 167.516 139.384 159.382 145.383 153.383C151.382 147.384 159.516 144.01 168 144C173.68 143.991 179.258 145.508 184.15 148.393C184.061 149.585 184 150.785 184 152C183.991 158.033 185.129 164.012 187.354 169.619C180.204 178.148 176.199 188.872 176.009 200H176C168.862 199.994 161.854 201.91 155.712 205.547C149.872 203.124 144.883 199.023 141.374 193.764C137.865 188.504 135.995 182.323 136 176V176ZM151.1 272.023L158.771 273.939C174.872 277.963 191.404 279.999 208 280C210.122 280 212.157 279.157 213.657 277.657C215.157 276.157 216 274.122 216 272C216 269.878 215.157 267.843 213.657 266.343C212.157 264.843 210.122 264 208 264C192.714 263.998 177.487 262.123 162.657 258.417L159.823 257.709C156.247 254.448 153.742 250.182 152.635 245.471C151.528 240.76 151.873 235.824 153.623 231.313C155.373 226.801 158.446 222.924 162.44 220.191C166.434 217.458 171.161 215.997 176 216H183.014L190.776 217.939C204.174 221.286 217.878 223.26 231.676 223.829C231.788 223.829 231.899 223.836 232.01 223.836C234.102 223.833 236.109 223.01 237.602 221.545C239.095 220.08 239.954 218.088 239.996 215.997C240.038 213.906 239.26 211.881 237.827 210.357C236.395 208.833 234.422 207.93 232.332 207.843C219.623 207.318 207.001 205.5 194.661 202.417L192 201.753V200.971C192 192.227 195.474 183.84 201.657 177.657C207.84 171.474 216.227 168 224.971 168H255.432C266.799 168.027 278.024 165.483 288.269 160.559C298.514 155.635 307.513 148.459 314.592 139.566L318.892 134.188L338.707 168.864C341.748 174.185 342.823 180.405 341.745 186.438C340.667 192.471 337.503 197.934 332.807 201.872C332.485 202.143 332.184 202.438 331.907 202.756C320.021 205.63 307.883 207.334 295.665 207.843C293.575 207.93 291.603 208.833 290.17 210.357C288.738 211.881 287.959 213.906 288.001 215.997C288.043 218.088 288.903 220.08 290.395 221.545C291.888 223.01 293.895 223.833 295.987 223.836C296.098 223.836 296.21 223.836 296.321 223.829C310.119 223.26 323.823 221.287 337.221 217.94L344.985 216H352C356.839 215.997 361.566 217.458 365.56 220.191C369.554 222.925 372.627 226.802 374.377 231.314C376.127 235.826 376.471 240.761 375.364 245.472C374.257 250.183 371.751 254.449 368.175 257.71L365.343 258.418C350.513 262.124 335.286 263.998 320 264C317.878 264 315.844 264.843 314.343 266.343C312.843 267.843 312 269.878 312 272C312 274.122 312.843 276.157 314.343 277.657C315.844 279.157 317.878 280 320 280C336.594 279.998 353.125 277.963 369.223 273.94L376.896 272.023C383.099 272.261 388.968 274.89 393.275 279.36C397.582 283.83 399.992 289.793 400 296C400.01 300.707 398.621 305.311 396.011 309.228C387.592 307.427 378.829 308.132 370.806 311.255C360.516 307.245 349.096 307.245 338.806 311.255C328.516 307.245 317.096 307.245 306.806 311.255C296.516 307.245 285.096 307.245 274.806 311.255C264.516 307.245 253.096 307.245 242.806 311.255C232.516 307.245 221.096 307.245 210.806 311.255C200.516 307.245 189.096 307.245 178.806 311.255C168.516 307.245 157.096 307.245 146.806 311.255C141.882 309.334 136.651 308.317 131.365 308.255C129.24 304.677 128.083 300.607 128.006 296.446C127.929 292.285 128.935 288.176 130.926 284.521C132.917 280.867 135.824 277.792 139.362 275.601C142.899 273.409 146.946 272.175 151.105 272.019L151.1 272.023ZM111.224 327.155C112.335 327.711 113.56 328 114.802 328C116.044 328 117.268 327.711 118.379 327.155C122.239 325.237 126.491 324.239 130.802 324.239C135.112 324.239 139.364 325.237 143.224 327.155C144.335 327.711 145.56 328 146.802 328C148.044 328 149.268 327.711 150.379 327.155C154.239 325.237 158.491 324.239 162.802 324.239C167.112 324.239 171.364 325.237 175.224 327.155C176.335 327.711 177.56 328 178.802 328C180.044 328 181.268 327.711 182.379 327.155C186.239 325.237 190.491 324.239 194.802 324.239C199.112 324.239 203.364 325.237 207.224 327.155C208.335 327.711 209.56 328 210.802 328C212.044 328 213.268 327.711 214.379 327.155C218.239 325.237 222.491 324.239 226.802 324.239C231.112 324.239 235.364 325.237 239.224 327.155C240.335 327.711 241.56 328 242.802 328C244.044 328 245.269 327.711 246.379 327.155C250.239 325.237 254.491 324.239 258.802 324.239C263.112 324.239 267.364 325.237 271.224 327.155C272.335 327.711 273.56 328 274.802 328C276.044 328 277.269 327.711 278.379 327.155C282.239 325.237 286.491 324.239 290.802 324.239C295.112 324.239 299.364 325.237 303.224 327.155C304.335 327.711 305.56 328 306.802 328C308.044 328 309.269 327.711 310.379 327.155C314.239 325.237 318.491 324.239 322.802 324.239C327.112 324.239 331.364 325.237 335.224 327.155C336.335 327.711 337.56 328 338.802 328C340.044 328 341.269 327.711 342.379 327.155C346.239 325.237 350.491 324.239 354.802 324.239C359.112 324.239 363.364 325.237 367.224 327.155C368.335 327.711 369.56 328 370.802 328C372.044 328 373.268 327.711 374.379 327.155C378.239 325.237 382.491 324.239 386.802 324.239C391.112 324.239 395.364 325.237 399.224 327.155C400.335 327.711 401.56 328.001 402.802 328.001C404.044 328.001 405.269 327.711 406.379 327.155L406.787 326.955L364.794 472H152.818L110.818 326.951L111.224 327.155Z" fill="black"/>
<path d="M205.021 405.577C201.655 409.986 199.756 415.339 199.591 420.884C199.426 426.428 201.003 431.885 204.101 436.486L217.94 457.057C219.004 458.639 220.598 459.789 222.435 460.299C224.272 460.81 226.23 460.648 227.958 459.842L250.429 449.369C255.458 447.028 259.626 443.169 262.347 438.336C265.068 433.503 266.206 427.938 265.599 422.424C265.254 419.289 264.216 416.271 262.561 413.586C260.906 410.902 258.675 408.619 256.029 406.903C253.383 405.187 250.389 404.08 247.263 403.664C244.137 403.247 240.957 403.53 237.954 404.493C235.88 402.118 233.303 400.234 230.41 398.976C227.518 397.719 224.382 397.121 221.231 397.225C218.079 397.329 214.989 398.132 212.186 399.576C209.382 401.021 206.935 403.071 205.021 405.577V405.577ZM217.742 415.277C218.23 414.633 218.861 414.111 219.584 413.751C220.308 413.391 221.105 413.204 221.913 413.204C222.394 413.204 222.873 413.27 223.336 413.399C224.003 413.583 224.626 413.897 225.171 414.323C225.715 414.749 226.17 415.279 226.508 415.882L228.12 418.736C229.164 420.583 230.898 421.941 232.942 422.509C234.987 423.077 237.173 422.811 239.02 421.767L241.875 420.154C242.633 419.726 243.486 419.493 244.357 419.475C245.227 419.458 246.089 419.657 246.863 420.054C247.638 420.451 248.302 421.035 248.796 421.752C249.29 422.469 249.598 423.298 249.693 424.163C249.935 426.353 249.483 428.563 248.403 430.482C247.322 432.401 245.667 433.934 243.67 434.863L227.4 442.45L217.378 427.555C216.148 425.728 215.521 423.562 215.587 421.36C215.652 419.159 216.406 417.033 217.742 415.282V415.277Z" fill="black"/>
<path d="M178.7 406.546C180.35 407.501 182.286 407.836 184.161 407.49C186.035 407.144 187.724 406.14 188.924 404.659L204.534 385.396C208.027 381.087 210.082 375.792 210.409 370.255C210.737 364.718 209.32 359.218 206.358 354.528C204.674 351.862 202.418 349.604 199.753 347.917C197.089 346.23 194.083 345.156 190.953 344.773C187.823 344.39 184.647 344.708 181.654 345.703C178.662 346.699 175.928 348.347 173.651 350.528C170.745 349.302 167.604 348.738 164.453 348.876C161.302 349.014 158.222 349.851 155.434 351.326C152.647 352.8 150.222 354.876 148.335 357.403C146.448 359.93 145.147 362.845 144.525 365.937C143.432 371.375 144.071 377.019 146.353 382.075C148.635 387.131 152.444 391.344 157.245 394.122L178.7 406.546ZM160.212 369.086C160.416 368.054 160.925 367.107 161.674 366.368C162.423 365.63 163.377 365.134 164.412 364.945C164.731 364.886 165.054 364.856 165.378 364.856C166.441 364.857 167.478 365.181 168.352 365.785L171.052 367.645C171.918 368.241 172.892 368.66 173.919 368.879C174.947 369.099 176.007 369.113 177.04 368.923C178.074 368.732 179.059 368.34 179.941 367.768C180.822 367.197 181.582 366.457 182.178 365.592L184.037 362.892C184.531 362.175 185.195 361.591 185.97 361.194C186.745 360.796 187.606 360.597 188.477 360.615C189.347 360.632 190.2 360.865 190.959 361.293C191.717 361.721 192.357 362.331 192.822 363.067C193.998 364.929 194.561 367.113 194.431 369.312C194.301 371.51 193.486 373.613 192.099 375.324L180.799 389.272L165.262 380.272C163.356 379.17 161.843 377.498 160.936 375.492C160.03 373.485 159.775 371.245 160.207 369.086H160.212Z" fill="black"/>
<path d="M257.121 391.288L278.426 403.967C280.064 404.942 281.997 405.3 283.875 404.976C285.754 404.652 287.455 403.669 288.673 402.202L304.51 383.127C308.055 378.86 310.172 373.589 310.565 368.056C310.958 362.523 309.607 357.006 306.701 352.281C305.048 349.595 302.819 347.31 300.175 345.591C297.531 343.873 294.538 342.763 291.413 342.343C288.288 341.923 285.108 342.203 282.104 343.163C279.1 344.123 276.347 345.738 274.044 347.893C271.153 346.633 268.018 346.031 264.866 346.131C261.714 346.232 258.624 347.031 255.819 348.473C253.014 349.914 250.565 351.961 248.648 354.465C246.731 356.97 245.396 359.869 244.737 362.953C243.579 368.378 244.151 374.029 246.373 379.112C248.594 384.194 252.353 388.453 257.121 391.288V391.288ZM260.386 366.288C260.602 365.258 261.123 364.317 261.882 363.587C262.64 362.857 263.601 362.373 264.639 362.198C264.936 362.147 265.237 362.121 265.539 362.121C266.623 362.121 267.679 362.458 268.563 363.085L271.241 364.977C272.099 365.583 273.068 366.014 274.093 366.246C275.118 366.477 276.178 366.505 277.213 366.327C278.249 366.148 279.239 365.768 280.127 365.207C281.016 364.646 281.785 363.916 282.391 363.058L284.283 360.378C284.786 359.667 285.457 359.092 286.236 358.704C287.016 358.316 287.879 358.128 288.75 358.155C289.62 358.183 290.47 358.426 291.223 358.863C291.976 359.3 292.609 359.917 293.065 360.659C294.219 362.535 294.755 364.726 294.599 366.922C294.443 369.119 293.602 371.212 292.194 372.906L280.731 386.72L265.3 377.538C263.407 376.412 261.915 374.721 261.034 372.703C260.152 370.685 259.926 368.441 260.386 366.288V366.288Z" fill="black"/>
<path d="M306.7 401.578C303.464 406.083 301.723 411.49 301.72 417.037C301.717 422.583 303.453 427.992 306.684 432.5L321.118 452.657C322.227 454.208 323.853 455.311 325.704 455.768C327.555 456.225 329.508 456.006 331.211 455.149L353.368 444.025C358.326 441.538 362.38 437.559 364.959 432.648C367.538 427.737 368.512 422.141 367.744 416.647C367.308 413.524 366.182 410.537 364.449 407.902C362.717 405.267 360.42 403.05 357.725 401.412C355.03 399.774 352.005 398.756 348.868 398.43C345.731 398.105 342.561 398.482 339.588 399.532C337.445 397.219 334.814 395.41 331.886 394.238C328.958 393.066 325.806 392.56 322.659 392.756C319.511 392.952 316.446 393.845 313.686 395.371C310.926 396.896 308.54 399.017 306.7 401.578ZM319.7 410.907C320.184 410.228 320.823 409.673 321.565 409.291C322.306 408.908 323.129 408.708 323.963 408.707C324.393 408.708 324.821 408.76 325.238 408.862C325.909 409.026 326.542 409.322 327.098 409.732C327.655 410.142 328.125 410.658 328.481 411.25L330.176 414.057C330.719 414.957 331.434 415.74 332.28 416.363C333.126 416.986 334.087 417.436 335.107 417.688C336.127 417.94 337.187 417.988 338.225 417.83C339.264 417.672 340.262 417.312 341.161 416.768L343.961 415.073C344.706 414.623 345.552 414.365 346.422 414.322C347.292 414.279 348.159 414.453 348.945 414.827C349.731 415.202 350.412 415.765 350.927 416.468C351.441 417.17 351.774 417.99 351.894 418.852C352.199 421.033 351.812 423.255 350.788 425.206C349.764 427.156 348.155 428.736 346.186 429.723L330.142 437.778L319.689 423.178C318.409 421.388 317.722 419.242 317.724 417.041C317.726 414.84 318.417 412.695 319.7 410.907V410.907Z" fill="black"/>
<path d="M234.343 253.657C235.844 255.158 237.878 256 240 256C242.122 256 244.157 255.158 245.657 253.657C247.158 252.157 248 250.122 248 248C248 245.878 247.158 243.844 245.657 242.343L237.657 234.343C236.157 232.843 234.122 232 232 232C229.878 232 227.844 232.843 226.343 234.343C224.843 235.844 224 237.878 224 240C224 242.122 224.843 244.157 226.343 245.657L234.343 253.657Z" fill="black"/>
<path d="M282.343 274.343C281.6 275.086 281.011 275.968 280.609 276.938C280.206 277.909 280 278.949 280 280C280 281.05 280.206 282.091 280.609 283.061C281.011 284.032 281.6 284.914 282.343 285.657L290.343 293.657C291.843 295.157 293.878 296 296 296C298.122 296 300.157 295.157 301.657 293.657C303.157 292.157 304 290.122 304 288C304 285.878 303.157 283.843 301.657 282.343L293.657 274.343C292.914 273.6 292.032 273.011 291.061 272.609C290.091 272.206 289.05 272 288 272C286.949 272 285.909 272.206 284.938 272.609C283.968 273.011 283.086 273.6 282.343 274.343V274.343Z" fill="black"/>
<path d="M338.343 245.657C339.086 246.4 339.968 246.989 340.939 247.391C341.909 247.793 342.95 248 344 248C345.051 248 346.091 247.793 347.062 247.391C348.032 246.989 348.914 246.4 349.657 245.657C350.4 244.914 350.989 244.032 351.391 243.062C351.793 242.091 352 241.051 352 240C352 238.95 351.793 237.909 351.391 236.939C350.989 235.968 350.4 235.086 349.657 234.343L341.657 226.343C340.157 224.843 338.122 224 336 224C333.878 224 331.844 224.843 330.343 226.343C328.843 227.844 328 229.878 328 232C328 234.122 328.843 236.157 330.343 237.657L338.343 245.657Z" fill="black"/>
<path d="M272 256C273.051 256.002 274.091 255.795 275.062 255.393C276.033 254.991 276.915 254.401 277.657 253.657L285.657 245.657C287.157 244.157 288 242.122 288 240C288 237.878 287.157 235.844 285.657 234.343C284.156 232.843 282.122 232 280 232C277.878 232 275.843 232.843 274.343 234.343L266.343 242.343C265.224 243.462 264.462 244.888 264.153 246.439C263.845 247.991 264.003 249.6 264.609 251.062C265.214 252.524 266.239 253.773 267.555 254.652C268.871 255.531 270.418 256 272 256Z" fill="black"/>
<path d="M186.343 226.343L178.343 234.343C176.843 235.844 176 237.878 176 240C176 242.122 176.843 244.157 178.343 245.657C179.844 247.158 181.878 248 184 248C186.122 248 188.157 247.158 189.657 245.657L197.657 237.657C199.158 236.157 200 234.122 200 232C200 229.878 199.158 227.844 197.657 226.343C196.157 224.843 194.122 224 192 224C189.878 224 187.844 224.843 186.343 226.343Z" fill="black"/>
<path d="M160 304C161.051 304.002 162.091 303.795 163.062 303.393C164.033 302.991 164.915 302.401 165.657 301.657L173.657 293.657C174.4 292.914 174.989 292.032 175.391 291.062C175.793 290.091 176 289.051 176 288C176 286.95 175.793 285.909 175.391 284.939C174.989 283.968 174.4 283.086 173.657 282.343C172.914 281.6 172.032 281.011 171.061 280.609C170.091 280.207 169.05 280 168 280C166.949 280 165.909 280.207 164.938 280.609C163.968 281.011 163.086 281.6 162.343 282.343L154.343 290.343C153.224 291.462 152.462 292.888 152.153 294.439C151.845 295.991 152.003 297.6 152.608 299.062C153.214 300.524 154.239 301.773 155.555 302.652C156.871 303.531 158.418 304 160 304V304Z" fill="black"/>
<path d="M272 200C273.051 200.002 274.091 199.795 275.062 199.393C276.033 198.991 276.915 198.401 277.657 197.657L285.657 189.657C287.157 188.157 288 186.122 288 184C288 181.878 287.157 179.844 285.657 178.343C284.156 176.843 282.122 176 280 176C277.878 176 275.843 176.843 274.343 178.343L266.343 186.343C265.224 187.462 264.462 188.888 264.153 190.439C263.845 191.991 264.003 193.6 264.609 195.062C265.214 196.524 266.239 197.773 267.555 198.652C268.871 199.531 270.418 200 272 200Z" fill="black"/>
<path d="M234.343 274.343C233.6 275.086 233.011 275.968 232.609 276.938C232.206 277.909 232 278.949 232 280C232 281.05 232.206 282.091 232.609 283.061C233.011 284.032 233.6 284.914 234.343 285.657L242.343 293.657C243.086 294.4 243.968 294.989 244.938 295.391C245.909 295.793 246.949 296 248 296C249.05 296 250.091 295.793 251.061 295.391C252.032 294.989 252.914 294.4 253.657 293.657C254.4 292.914 254.989 292.032 255.391 291.061C255.793 290.091 256 289.05 256 288C256 286.949 255.793 285.909 255.391 284.938C254.989 283.968 254.4 283.086 253.657 282.343L245.657 274.343C244.914 273.6 244.032 273.011 243.061 272.609C242.091 272.206 241.05 272 240 272C238.949 272 237.909 272.206 236.938 272.609C235.968 273.011 235.086 273.6 234.343 274.343Z" fill="black"/>
</svg>
