<?xml version="1.0" encoding="UTF-8" standalone="no"?> <svg width="64" height="64" viewBox="0 0 64 64" fill="none" xmlns="http://www.w3.org/2000/svg">
<path d="M3 47.25V51.75C3 55.75 15.984 59 32 59C48.016 59 61 55.754 61 51.75V47.25" fill="#754C24"/>
<path d="M56 43.179C59.156 44.34 61 45.741 61 47.25C61 51.25 48.016 54.5 32 54.5C15.984 54.5 3 51.254 3 47.25C3 45.741 4.844 44.34 8 43.179" fill="#8C6239"/>
<path d="M36 47H56V28.056C59.1 26.988 61 25.564 61 24C61 20.686 52.493 18 42 18H22" fill="#8C6239"/>
<path d="M36 28.056C39.1 26.988 41 25.564 41 24C41 20.686 32.493 18 22 18C11.507 18 3 20.686 3 24C3 25.564 4.895 26.988 8 28.056V47H36V28.056Z" fill="#ECE09C"/>
<path d="M25.707 14.707L24.293 13.293L26.293 11.293C26.6353 10.9498 26.8276 10.4848 26.8276 10C26.8276 9.51523 26.6353 9.05024 26.293 8.707C25.576 7.98857 25.1733 7.01502 25.1733 6C25.1733 4.98498 25.576 4.01142 26.293 3.293L27.293 2.293L28.707 3.707L27.707 4.707C27.5371 4.87676 27.4024 5.07833 27.3104 5.30019C27.2185 5.52205 27.1712 5.75985 27.1712 6C27.1712 6.24015 27.2185 6.47795 27.3104 6.69981C27.4024 6.92167 27.5371 7.12324 27.707 7.293C28.424 8.01142 28.8267 8.98498 28.8267 10C28.8267 11.015 28.424 11.9886 27.707 12.707L25.707 14.707Z" fill="#ECE09C"/>
<path d="M13.707 14.707L12.293 13.293L14.293 11.293C14.6353 10.9498 14.8276 10.4848 14.8276 10C14.8276 9.51523 14.6353 9.05024 14.293 8.707C13.576 7.98857 13.1733 7.01502 13.1733 6C13.1733 4.98498 13.576 4.01142 14.293 3.293L15.293 2.293L16.707 3.707L15.707 4.707C15.5371 4.87676 15.4024 5.07833 15.3104 5.30019C15.2185 5.52205 15.1712 5.75985 15.1712 6C15.1712 6.24015 15.2185 6.47795 15.3104 6.69981C15.4024 6.92167 15.5371 7.12324 15.707 7.293C16.424 8.01142 16.8267 8.98498 16.8267 10C16.8267 11.015 16.424 11.9886 15.707 12.707L13.707 14.707Z" fill="#ECE09C"/>
<path d="M37.707 14.707L36.293 13.293L38.293 11.293C38.6353 10.9498 38.8276 10.4848 38.8276 10C38.8276 9.51523 38.6353 9.05024 38.293 8.707C37.576 7.98857 37.1733 7.01502 37.1733 6C37.1733 4.98498 37.576 4.01142 38.293 3.293L39.293 2.293L40.707 3.707L39.707 4.707C39.5371 4.87676 39.4024 5.07833 39.3104 5.30019C39.2185 5.52205 39.1712 5.75985 39.1712 6C39.1712 6.24015 39.2185 6.47795 39.3104 6.69981C39.4024 6.92167 39.5371 7.12324 39.707 7.293C40.424 8.01142 40.8267 8.98498 40.8267 10C40.8267 11.015 40.424 11.9886 39.707 12.707L37.707 14.707Z" fill="#ECE09C"/>
<path d="M47.707 14.707L46.293 13.293L48.293 11.293C48.6353 10.9498 48.8276 10.4848 48.8276 10C48.8276 9.51523 48.6353 9.05024 48.293 8.707C47.576 7.98857 47.1733 7.01502 47.1733 6C47.1733 4.98498 47.576 4.01142 48.293 3.293L49.293 2.293L50.707 3.707L49.707 4.707C49.5371 4.87676 49.4024 5.07833 49.3104 5.30019C49.2185 5.52205 49.1712 5.75985 49.1712 6C49.1712 6.24015 49.2185 6.47795 49.3104 6.69981C49.4024 6.92167 49.5371 7.12324 49.707 7.293C50.424 8.01142 50.8267 8.98498 50.8267 10C50.8267 11.015 50.424 11.9886 49.707 12.707L47.707 14.707Z" fill="#ECE09C"/>
<path d="M14 24H12V26H14V24Z" fill="#937963"/>
<path d="M21 28H19V30H21V28Z" fill="#937963"/>
<path d="M30 23H28V25H30V23Z" fill="#937963"/>
<path d="M28 35H26V37H28V35Z" fill="#937963"/>
<path d="M15 39H13V41H15V39Z" fill="#937963"/>
<path d="M22 42H20V44H22V42Z" fill="#937963"/>
<path d="M33 41H31V43H33V41Z" fill="#937963"/>
<path d="M17 33H15V35H17V33Z" fill="#937963"/>
<path d="M30 29H28V31H30V29Z" fill="#937963"/>
<path d="M21 21H19V23H21V21Z" fill="#937963"/>
<path d="M56 28.056H36V47H56V28.056Z" fill="#C69C6D"/>
</svg>
