<?xml version="1.0" encoding="UTF-8" standalone="no"?> <svg width="64" height="64" viewBox="0 0 64 64" fill="none" xmlns="http://www.w3.org/2000/svg">
<path d="M55 32.871L32 27L40.064 35.684C37.5 35.888 34.8 36 32 36C30.596 36 29.2177 35.9727 27.865 35.918L29.687 40.318C28.994 40.6457 28.4537 41.2274 28.1777 41.9425C27.9018 42.6577 27.9115 43.4515 28.2047 44.1597C28.498 44.868 29.0524 45.4363 29.7531 45.747C30.4538 46.0577 31.2472 46.0871 31.969 45.829L33.692 49.988C48.92 49.743 61 46.261 61 42V28C61 29.834 58.758 31.522 55 32.871Z" fill="#A8DBA8"/>
<path d="M19 43.485V35.151C9.513 33.836 3 31.128 3 28V42C3 44.88 8.518 47.4 16.794 48.812L19 43.485Z" fill="#A8DBA8"/>
<path d="M57.014 23.954C51.731 26.445 44.273 28 36 28H35.913L55 32.871C58.761 31.522 61 29.834 61 28C61 26.523 59.543 25.141 57.014 23.954Z" fill="#CFF09E"/>
<path d="M19 29H25L26.253 32.026C26.1693 32.0117 26.0848 32.0031 26 32C25.552 31.9988 25.1165 32.1485 24.764 32.425C24.4114 32.7015 24.1623 33.0886 24.0567 33.5241C23.9511 33.9595 23.9952 34.4178 24.182 34.8251C24.3687 35.2323 24.6872 35.5649 25.086 35.769C25.6133 35.805 26.1467 35.8367 26.686 35.864C27.0374 35.7353 27.3461 35.5117 27.578 35.218L27.867 35.918C29.217 35.9727 30.5947 36 32 36C34.8 36 37.5 35.888 40.064 35.684L32.857 27.923C24.128 27.501 16.557 25.344 11.905 22.235C6.419 23.691 3 25.734 3 28C3 31.128 9.513 33.836 19 35.151V29Z" fill="#CFF09E"/>
<path d="M54.415 32.723L32 27L40.064 35.684H40V49.684C45.0987 49.3823 50.1387 48.4367 55 46.87V33L54.415 32.723Z" fill="#79BD9A"/>
<path d="M43 38C44.1046 38 45 37.1046 45 36C45 34.8954 44.1046 34 43 34C41.8954 34 41 34.8954 41 36C41 37.1046 41.8954 38 43 38Z" fill="#A8DBA8"/>
<path d="M49 44C50.1046 44 51 43.1046 51 42C51 40.8954 50.1046 40 49 40C47.8954 40 47 40.8954 47 42C47 43.1046 47.8954 44 49 44Z" fill="#A8DBA8"/>
<path d="M28.106 44.475L24.637 35.457C24.4363 35.271 24.2762 35.0456 24.1666 34.7949C24.057 34.5442 24.0003 34.2736 24 34C24 33.946 24.012 33.9 24.016 33.842L22.154 29H19V43.485L13.686 56.314C15.2024 57.8335 17.0098 59.0313 19 59.836V61H25C27.1016 61.0028 29.183 60.5903 31.1246 59.7861C33.0663 58.9819 34.8298 57.8019 36.314 56.314L34.322 51.505C31.4734 49.9837 29.267 47.4885 28.106 44.475V44.475Z" fill="#CFF09E"/>
<path d="M13.687 56.314C15.2026 57.834 17.0098 59.0319 19 59.836V61H25C27.1014 61.0028 29.1826 60.5902 31.1241 59.786C33.0656 58.9819 34.829 57.8019 36.313 56.314H13.687Z" fill="#79BD9A"/>
<path d="M19 29L13.93 41.24C14.3261 41.4466 14.6412 41.7803 14.8249 42.1875C15.0086 42.5948 15.0501 43.0519 14.9429 43.4855C14.8356 43.9192 14.5858 44.3043 14.2334 44.5789C13.8811 44.8535 13.4467 45.0018 13 45C12.8004 44.9966 12.6024 44.9629 12.413 44.9L7.68597 56.314C9.17172 57.7998 10.9356 58.9785 12.8768 59.7826C14.8181 60.5867 16.8988 61.0006 19 61.0006C21.1012 61.0006 23.1818 60.5867 25.1231 59.7826C27.0644 58.9785 28.8282 57.7998 30.314 56.314L19 29Z" fill="#A8DBA8"/>
<path d="M22 57C23.1046 57 24 56.1046 24 55C24 53.8954 23.1046 53 22 53C20.8954 53 20 53.8954 20 55C20 56.1046 20.8954 57 22 57Z" fill="#79BD9A"/>
<path d="M14 56C15.1046 56 16 55.1046 16 54C16 52.8954 15.1046 52 14 52C12.8954 52 12 52.8954 12 54C12 55.1046 12.8954 56 14 56Z" fill="#79BD9A"/>
<path d="M20 49C21.1046 49 22 48.1046 22 47C22 45.8954 21.1046 45 20 45C18.8954 45 18 45.8954 18 47C18 48.1046 18.8954 49 20 49Z" fill="#79BD9A"/>
<path d="M32 19C17.457 19 2 22.154 2 28V42C2 44.467 4.742 46.614 9.947 48.243L6.763 55.931C6.68717 56.1137 6.66722 56.3147 6.70567 56.5088C6.74411 56.7028 6.83924 56.881 6.979 57.021C8.5541 58.6043 10.4275 59.8596 12.4909 60.7143C14.5543 61.5689 16.7666 62.0059 19 62H25C27.2334 62.0059 29.4457 61.5689 31.5091 60.7143C33.5725 59.8596 35.4459 58.6043 37.021 57.021C37.1608 56.881 37.2559 56.7028 37.2943 56.5088C37.3328 56.3147 37.3128 56.1137 37.237 55.931L35.175 50.951C36.792 50.901 38.404 50.813 39.99 50.688H40C40.008 50.688 40.014 50.688 40.021 50.688C51.731 49.754 62 46.76 62 42V28C62 22.154 46.543 19 32 19ZM32 21C49.348 21 60 25.077 60 28C60 29.226 58.117 30.646 54.944 31.825L32.244 26.031C32.0346 25.9771 31.8133 25.9925 31.6134 26.075C31.4135 26.1575 31.2457 26.3025 31.1352 26.4884C31.0247 26.6743 30.9774 26.891 31.0005 27.106C31.0235 27.321 31.1156 27.5228 31.263 27.681L37.902 34.831C34.856 35.008 31.744 35.042 28.537 34.931L28.496 34.831C28.429 34.6693 28.3206 34.528 28.1819 34.4212C28.0431 34.3145 27.8787 34.246 27.7052 34.2227C27.5317 34.1995 27.3551 34.2221 27.1931 34.2885C27.031 34.3549 26.8893 34.4627 26.782 34.601C26.6793 34.7375 26.5434 34.8454 26.3872 34.9145C26.231 34.9836 26.0598 35.0115 25.8897 34.9956C25.7197 34.9797 25.5565 34.9205 25.4158 34.8237C25.2751 34.7269 25.1616 34.5956 25.086 34.4425C25.0104 34.2893 24.9754 34.1193 24.9841 33.9488C24.9928 33.7782 25.0451 33.6127 25.136 33.4681C25.2268 33.3235 25.3532 33.2045 25.503 33.1226C25.6529 33.0406 25.8212 32.9984 25.992 33L26.126 33.018C26.2999 33.0394 26.4763 33.0151 26.638 32.9476C26.7997 32.8801 26.941 32.7717 27.048 32.633C27.1544 32.4937 27.2222 32.329 27.2449 32.1553C27.2675 31.9815 27.2441 31.8049 27.177 31.643L25.924 28.617C25.8483 28.4343 25.72 28.2782 25.5556 28.1684C25.3911 28.0585 25.1978 28 25 28H19C18.8022 28 18.6089 28.0585 18.4444 28.1684C18.28 28.2782 18.1517 28.4343 18.076 28.617L15.992 33.648C7.726 32.111 4 29.728 4 28C4 25.077 14.652 21 32 21ZM41 38.22C41.4617 38.6393 42.0427 38.9043 42.662 38.978C43.2813 39.0518 43.9082 38.9307 44.4555 38.6316C45.0028 38.3325 45.4433 37.8703 45.7157 37.3092C45.988 36.7481 46.0788 36.1161 45.9752 35.5011C45.8717 34.886 45.579 34.3185 45.1379 33.8776C44.6969 33.4366 44.1293 33.144 43.5143 33.0406C42.8992 32.9372 42.2672 33.0281 41.7062 33.3006C41.1451 33.5731 40.683 34.0136 40.384 34.561L35.045 28.81L54 33.648V46.148C49.7689 47.4363 45.4097 48.2585 41 48.6V38.22ZM42 36C42 35.8022 42.0586 35.6089 42.1685 35.4444C42.2784 35.28 42.4346 35.1518 42.6173 35.0761C42.8 35.0004 43.0011 34.9806 43.1951 35.0192C43.3891 35.0578 43.5673 35.153 43.7071 35.2929C43.847 35.4327 43.9422 35.6109 43.9808 35.8049C44.0194 35.9989 43.9996 36.2 43.9239 36.3827C43.8482 36.5654 43.72 36.7216 43.5556 36.8315C43.3911 36.9414 43.1978 37 43 37C42.7348 37 42.4804 36.8946 42.2929 36.7071C42.1054 36.5196 42 36.2652 42 36ZM31.366 46.981L34.687 55H30.852L20.5 30H24.335L24.845 31.232C24.2055 31.4993 23.6783 31.9797 23.3529 32.5917C23.0275 33.2037 22.9241 33.9094 23.0602 34.589C23.1963 35.2686 23.5635 35.8802 24.0994 36.3197C24.6353 36.7592 25.3069 36.9996 26 37C26.3905 37.0005 26.7773 36.9237 27.138 36.774L28.446 39.932C27.9926 40.3042 27.6276 40.7726 27.3775 41.3032C27.1274 41.8338 26.9985 42.4134 27 43C27.0003 43.556 27.1165 44.1057 27.3412 44.6143C27.5659 45.1228 27.8941 45.5789 28.3049 45.9535C28.7157 46.3281 29.2001 46.613 29.7272 46.7899C30.2542 46.9668 30.8124 47.0319 31.366 46.981ZM4 42V31.427C6.667 33.534 11.483 34.82 15.209 35.539L13.009 40.856C12.9135 41.0859 12.9072 41.3432 12.9914 41.5775C13.0755 41.8118 13.244 42.0064 13.464 42.123C13.6625 42.2256 13.8206 42.3921 13.9129 42.5955C14.0052 42.799 14.0262 43.0277 13.9726 43.2446C13.9189 43.4615 13.7938 43.654 13.6174 43.791C13.4409 43.9281 13.2234 44.0017 13 44C12.9006 43.9969 12.8022 43.979 12.708 43.947C12.4699 43.8735 12.213 43.8915 11.9876 43.9975C11.7621 44.1035 11.5843 44.2898 11.489 44.52L10.717 46.385C5.788 44.872 4 43.148 4 42ZM8.872 56.064L13.041 46C13.6271 45.993 14.1983 45.8142 14.6837 45.4856C15.1691 45.157 15.5473 44.6932 15.7716 44.1516C15.9958 43.6101 16.0562 43.0146 15.9451 42.4391C15.8341 41.8636 15.5566 41.3333 15.147 40.914L19 31.613L29.033 55.836C29.0174 55.8896 29.0064 55.9445 29 56C29.0059 56.0497 29.016 56.0989 29.03 56.147C26.261 58.6416 22.6619 60.0152 18.935 59.9999C15.208 59.9845 11.6204 58.5813 8.872 56.064V56.064ZM31.021 57.021C31.027 57.014 31.03 57.006 31.036 57H34C32.0459 58.4704 29.7582 59.4341 27.341 59.805C28.688 59.0478 29.9259 58.1112 31.021 57.021V57.021ZM32.894 45.443C32.7966 45.208 32.6133 45.019 32.3815 44.9144C32.1496 44.8098 31.8866 44.7975 31.646 44.88C31.4388 44.9557 31.2205 44.9962 31 45C30.548 45.0016 30.1089 44.8495 29.7548 44.5687C29.4006 44.2879 29.1524 43.895 29.0509 43.4546C28.9494 43.0142 29.0006 42.5523 29.1962 42.1448C29.3917 41.7373 29.7199 41.4084 30.127 41.212C30.3551 41.0999 30.5319 40.9053 30.6216 40.6675C30.7114 40.4298 30.7072 40.1668 30.61 39.932L29.381 36.963C30.263 36.985 31.141 37 32 37C34.361 37 36.7 36.905 39 36.749V48.759C37.508 48.863 35.9593 48.9333 34.354 48.97L32.894 45.443ZM56 45.408V33.551C57.4307 33.0365 58.7784 32.3152 60 31.41V42C60 43.13 58.565 44.328 56 45.408Z" fill="#3B8686"/>
<path d="M49 39C48.4067 39 47.8266 39.1759 47.3333 39.5056C46.8399 39.8352 46.4554 40.3038 46.2284 40.852C46.0013 41.4001 45.9419 42.0033 46.0576 42.5853C46.1734 43.1672 46.4591 43.7018 46.8787 44.1213C47.2982 44.5409 47.8328 44.8266 48.4147 44.9424C48.9967 45.0581 49.5999 44.9987 50.148 44.7716C50.6962 44.5446 51.1648 44.1601 51.4944 43.6667C51.8241 43.1734 52 42.5933 52 42C52 41.2044 51.6839 40.4413 51.1213 39.8787C50.5587 39.3161 49.7957 39 49 39ZM49 43C48.8022 43 48.6089 42.9414 48.4444 42.8315C48.28 42.7216 48.1518 42.5654 48.0761 42.3827C48.0004 42.2 47.9806 41.9989 48.0192 41.8049C48.0578 41.6109 48.153 41.4327 48.2929 41.2929C48.4327 41.153 48.6109 41.0578 48.8049 41.0192C48.9989 40.9806 49.2 41.0004 49.3827 41.0761C49.5654 41.1518 49.7216 41.28 49.8315 41.4444C49.9414 41.6089 50 41.8022 50 42C50 42.2652 49.8946 42.5196 49.7071 42.7071C49.5196 42.8946 49.2652 43 49 43Z" fill="#3B8686"/>
<path d="M49 37C49.5523 37 50 36.5523 50 36C50 35.4477 49.5523 35 49 35C48.4477 35 48 35.4477 48 36C48 36.5523 48.4477 37 49 37Z" fill="#3B8686"/>
<path d="M44 46C44.5523 46 45 45.5523 45 45C45 44.4477 44.5523 44 44 44C43.4477 44 43 44.4477 43 45C43 45.5523 43.4477 46 44 46Z" fill="#3B8686"/>
<path d="M22 52C21.4067 52 20.8266 52.1759 20.3333 52.5056C19.8399 52.8352 19.4554 53.3038 19.2284 53.852C19.0013 54.4001 18.9419 55.0033 19.0576 55.5853C19.1734 56.1672 19.4591 56.7018 19.8787 57.1213C20.2982 57.5409 20.8328 57.8266 21.4147 57.9424C21.9967 58.0581 22.5999 57.9987 23.1481 57.7716C23.6962 57.5446 24.1648 57.1601 24.4944 56.6667C24.8241 56.1734 25 55.5933 25 55C25 54.2044 24.6839 53.4413 24.1213 52.8787C23.5587 52.3161 22.7957 52 22 52ZM22 56C21.8022 56 21.6089 55.9414 21.4444 55.8315C21.28 55.7216 21.1518 55.5654 21.0761 55.3827C21.0004 55.2 20.9806 54.9989 21.0192 54.8049C21.0578 54.6109 21.153 54.4327 21.2929 54.2929C21.4327 54.153 21.6109 54.0578 21.8049 54.0192C21.9989 53.9806 22.2 54.0004 22.3827 54.0761C22.5654 54.1518 22.7216 54.28 22.8315 54.4444C22.9414 54.6089 23 54.8022 23 55C23 55.2652 22.8946 55.5196 22.7071 55.7071C22.5196 55.8946 22.2652 56 22 56Z" fill="#3B8686"/>
<path d="M14 51C13.4067 51 12.8266 51.1759 12.3333 51.5056C11.8399 51.8352 11.4554 52.3038 11.2284 52.852C11.0013 53.4001 10.9419 54.0033 11.0576 54.5853C11.1734 55.1672 11.4591 55.7018 11.8787 56.1213C12.2982 56.5409 12.8328 56.8266 13.4147 56.9424C13.9967 57.0581 14.5999 56.9987 15.1481 56.7716C15.6962 56.5446 16.1648 56.1601 16.4944 55.6667C16.8241 55.1734 17 54.5933 17 54C17 53.2044 16.6839 52.4413 16.1213 51.8787C15.5587 51.3161 14.7957 51 14 51V51ZM14 55C13.8022 55 13.6089 54.9414 13.4444 54.8315C13.28 54.7216 13.1518 54.5654 13.0761 54.3827C13.0004 54.2 12.9806 53.9989 13.0192 53.8049C13.0578 53.6109 13.153 53.4327 13.2929 53.2929C13.4327 53.153 13.6109 53.0578 13.8049 53.0192C13.9989 52.9806 14.2 53.0004 14.3827 53.0761C14.5654 53.1518 14.7216 53.28 14.8315 53.4444C14.9414 53.6089 15 53.8022 15 54C15 54.2652 14.8946 54.5196 14.7071 54.7071C14.5196 54.8946 14.2652 55 14 55Z" fill="#3B8686"/>
<path d="M23 47C23 46.4067 22.8241 45.8266 22.4944 45.3333C22.1648 44.8399 21.6962 44.4554 21.1481 44.2284C20.5999 44.0013 19.9967 43.9419 19.4147 44.0576C18.8328 44.1734 18.2982 44.4591 17.8787 44.8787C17.4591 45.2982 17.1734 45.8328 17.0576 46.4147C16.9419 46.9967 17.0013 47.5999 17.2284 48.148C17.4554 48.6962 17.8399 49.1648 18.3333 49.4944C18.8266 49.8241 19.4067 50 20 50C20.7957 50 21.5587 49.6839 22.1213 49.1213C22.6839 48.5587 23 47.7957 23 47V47ZM19 47C19 46.8022 19.0586 46.6089 19.1685 46.4444C19.2784 46.28 19.4346 46.1518 19.6173 46.0761C19.8 46.0004 20.0011 45.9806 20.1951 46.0192C20.3891 46.0578 20.5673 46.153 20.7071 46.2929C20.847 46.4327 20.9422 46.6109 20.9808 46.8049C21.0194 46.9989 20.9996 47.2 20.9239 47.3827C20.8482 47.5654 20.72 47.7216 20.5556 47.8315C20.3911 47.9414 20.1978 48 20 48C19.7348 48 19.4804 47.8946 19.2929 47.7071C19.1054 47.5196 19 47.2652 19 47Z" fill="#3B8686"/>
<path d="M19 41C19.5523 41 20 40.5523 20 40C20 39.4477 19.5523 39 19 39C18.4477 39 18 39.4477 18 40C18 40.5523 18.4477 41 19 41Z" fill="#3B8686"/>
<path d="M30 51C30.5523 51 31 50.5523 31 50C31 49.4477 30.5523 49 30 49C29.4477 49 29 49.4477 29 50C29 50.5523 29.4477 51 30 51Z" fill="#3B8686"/>
</svg>
